# Blender 4.0.1
# www.blender.org
mtllib cans2.mtl
o Bake
v 0.472130 -1.104865 2.017699
v 0.472130 1.104865 2.017699
v 0.458453 -1.104865 2.109354
v 0.458453 1.104865 2.109354
v 0.427159 -1.104865 2.196579
v 0.427159 1.104865 2.196579
v 0.379449 -1.104865 2.276022
v 0.379449 1.104865 2.276022
v 0.317157 -1.104865 2.344632
v 0.317157 1.104865 2.344632
v 0.242676 -1.104865 2.399771
v 0.242676 1.104865 2.399771
v 0.158870 -1.104865 2.439320
v 0.158870 1.104865 2.439320
v 0.068959 -1.104865 2.461759
v 0.068959 1.104865 2.461759
v -0.023602 -1.104865 2.466226
v -0.023602 1.104865 2.466226
v -0.115257 -1.104865 2.452550
v -0.115257 1.104865 2.452550
v -0.202482 -1.104865 2.421255
v -0.202482 1.104865 2.421255
v -0.281926 -1.104865 2.373545
v -0.281926 1.104865 2.373545
v -0.350535 -1.104865 2.311253
v -0.350535 1.104865 2.311253
v -0.405674 -1.104865 2.236773
v -0.405674 1.104865 2.236773
v -0.445223 -1.104865 2.152967
v -0.445223 1.104865 2.152967
v -0.467662 -1.104865 2.063056
v -0.467662 1.104865 2.063056
v -0.472130 -1.104865 1.970494
v -0.472130 1.104865 1.970494
v -0.458453 -1.104865 1.878840
v -0.458453 1.104865 1.878840
v -0.427159 -1.104865 1.791615
v -0.427159 1.104865 1.791615
v -0.379449 -1.104865 1.712171
v -0.379449 1.104865 1.712171
v -0.317157 -1.104865 1.643561
v -0.317157 1.104865 1.643561
v -0.242676 -1.104865 1.588422
v -0.242676 1.104865 1.588422
v -0.158870 -1.104865 1.548874
v -0.158870 1.104865 1.548874
v -0.068959 -1.104865 1.526434
v -0.068959 1.104865 1.526434
v 0.023602 -1.104865 1.521967
v 0.023602 1.104865 1.521967
v 0.115257 -1.104865 1.535644
v 0.115257 1.104865 1.535644
v 0.202482 -1.104865 1.566938
v 0.202482 1.104865 1.566938
v 0.281926 -1.104865 1.614648
v 0.281926 1.104865 1.614648
v 0.350535 -1.104865 1.676940
v 0.350535 1.104865 1.676940
v 0.405674 -1.104865 1.751420
v 0.405674 1.104865 1.751420
v 0.445223 -1.104865 1.835226
v 0.445223 1.104865 1.835226
v 0.467662 -1.104865 1.925138
v 0.467662 1.104865 1.925138
v -0.097334 -1.104865 -0.462590
v -0.097334 1.104865 -0.462590
v -0.005216 -1.104865 -0.472690
v -0.005216 1.104865 -0.472690
v 0.087101 -1.104865 -0.464625
v 0.087101 1.104865 -0.464625
v 0.176071 -1.104865 -0.438705
v 0.176071 1.104865 -0.438705
v 0.258275 -1.104865 -0.395926
v 0.258275 1.104865 -0.395926
v 0.330554 -1.104865 -0.337931
v 0.330554 1.104865 -0.337931
v 0.390130 -1.104865 -0.266950
v 0.390130 1.104865 -0.266950
v 0.434713 -1.104865 -0.185710
v 0.434713 1.104865 -0.185710
v 0.462590 -1.104865 -0.097333
v 0.462590 1.104865 -0.097333
v 0.472690 -1.104865 -0.005216
v 0.472690 1.104865 -0.005216
v 0.464625 -1.104865 0.087101
v 0.464625 1.104865 0.087101
v 0.438705 -1.104865 0.176071
v 0.438705 1.104865 0.176071
v 0.395926 -1.104865 0.258275
v 0.395926 1.104865 0.258275
v 0.337931 -1.104865 0.330554
v 0.337931 1.104865 0.330554
v 0.266950 -1.104865 0.390130
v 0.266950 1.104865 0.390130
v 0.185710 -1.104865 0.434713
v 0.185710 1.104865 0.434713
v 0.097334 -1.104865 0.462590
v 0.097334 1.104865 0.462590
v 0.005216 -1.104865 0.472690
v 0.005216 1.104865 0.472690
v -0.087101 -1.104865 0.464625
v -0.087101 1.104865 0.464625
v -0.176071 -1.104865 0.438705
v -0.176071 1.104865 0.438705
v -0.258275 -1.104865 0.395926
v -0.258275 1.104865 0.395926
v -0.330554 -1.104865 0.337931
v -0.330554 1.104865 0.337931
v -0.390130 -1.104865 0.266950
v -0.390130 1.104865 0.266950
v -0.434713 -1.104865 0.185710
v -0.434713 1.104865 0.185710
v -0.462590 -1.104865 0.097333
v -0.462590 1.104865 0.097333
v -0.472690 -1.104865 0.005216
v -0.472690 1.104865 0.005216
v -0.464625 -1.104865 -0.087101
v -0.464625 1.104865 -0.087101
v -0.438705 -1.104865 -0.176071
v -0.438705 1.104865 -0.176071
v -0.395926 -1.104865 -0.258275
v -0.395926 1.104865 -0.258275
v -0.337931 -1.104865 -0.330554
v -0.337931 1.104865 -0.330554
v -0.266950 -1.104865 -0.390130
v -0.266950 1.104865 -0.390130
v -0.185710 -1.104865 -0.434713
v -0.185710 1.104865 -0.434713
vn 0.9988 -0.0000 0.0499
vn 0.9698 -0.0000 0.2438
vn 0.9036 -0.0000 0.4283
vn 0.8027 -0.0000 0.5964
vn 0.6709 -0.0000 0.7415
vn 0.5134 -0.0000 0.8582
vn 0.3361 -0.0000 0.9418
vn 0.1459 -0.0000 0.9893
vn -0.0499 -0.0000 0.9988
vn -0.2438 -0.0000 0.9698
vn -0.4283 -0.0000 0.9036
vn -0.5964 -0.0000 0.8027
vn -0.7415 -0.0000 0.6709
vn -0.8582 -0.0000 0.5134
vn -0.9418 -0.0000 0.3361
vn -0.9893 -0.0000 0.1459
vn -0.9988 -0.0000 -0.0499
vn -0.9698 -0.0000 -0.2438
vn -0.9036 -0.0000 -0.4283
vn -0.8027 -0.0000 -0.5964
vn -0.6709 -0.0000 -0.7415
vn -0.5134 -0.0000 -0.8582
vn -0.3361 -0.0000 -0.9418
vn -0.1459 -0.0000 -0.9893
vn 0.0499 -0.0000 -0.9988
vn 0.2438 -0.0000 -0.9698
vn 0.4283 -0.0000 -0.9036
vn 0.5964 -0.0000 -0.8027
vn 0.7415 -0.0000 -0.6709
vn 0.8582 -0.0000 -0.5134
vn 0.9418 -0.0000 -0.3361
vn -0.0000 1.0000 -0.0000
vn 0.9893 -0.0000 -0.1459
vn -0.0000 -1.0000 -0.0000
vn -0.2059 -0.0000 -0.9786
vn -0.0110 -0.0000 -0.9999
vn 0.1843 -0.0000 -0.9829
vn 0.3725 -0.0000 -0.9280
vn 0.5464 -0.0000 -0.8375
vn 0.6993 -0.0000 -0.7149
vn 0.8253 -0.0000 -0.5647
vn 0.9196 -0.0000 -0.3929
vn 0.9786 -0.0000 -0.2059
vn 0.9999 -0.0000 -0.0110
vn 0.9829 -0.0000 0.1843
vn 0.9280 -0.0000 0.3725
vn 0.8375 -0.0000 0.5464
vn 0.7149 -0.0000 0.6993
vn 0.5647 -0.0000 0.8253
vn 0.3929 -0.0000 0.9196
vn 0.2059 -0.0000 0.9786
vn 0.0110 -0.0000 0.9999
vn -0.1843 -0.0000 0.9829
vn -0.3725 -0.0000 0.9280
vn -0.5464 -0.0000 0.8375
vn -0.6993 -0.0000 0.7149
vn -0.8253 -0.0000 0.5647
vn -0.9196 -0.0000 0.3929
vn -0.9786 -0.0000 0.2059
vn -0.9999 -0.0000 0.0110
vn -0.9829 -0.0000 -0.1843
vn -0.9280 -0.0000 -0.3725
vn -0.8376 -0.0000 -0.5464
vn -0.7149 -0.0000 -0.6993
vn -0.5647 -0.0000 -0.8253
vn -0.3929 -0.0000 -0.9196
vt 0.686617 0.582608
vt 0.686617 0.295907
vt 0.714626 0.295907
vt 0.714626 0.582608
vt 0.741653 0.295907
vt 0.741653 0.582608
vt 0.766659 0.295907
vt 0.766659 0.582608
vt 0.788683 0.295907
vt 0.788683 0.582608
vt 0.003068 0.872686
vt 0.003068 0.585984
vt 0.024484 0.585984
vt 0.024484 0.872686
vt 0.049038 0.585984
vt 0.049038 0.872686
vt 0.075786 0.585984
vt 0.075786 0.872686
vt 0.103701 0.585984
vt 0.103701 0.872686
vt 0.131711 0.585984
vt 0.131711 0.872686
vt 0.158738 0.585984
vt 0.158738 0.872686
vt 0.183743 0.585984
vt 0.183743 0.872686
vt 0.205768 0.585984
vt 0.205768 0.872686
vt 0.211904 0.872686
vt 0.211904 0.585984
vt 0.233320 0.585984
vt 0.233320 0.872686
vt 0.257874 0.585984
vt 0.257874 0.872686
vt 0.284622 0.585984
vt 0.284622 0.872686
vt 0.312537 0.585984
vt 0.312537 0.872686
vt 0.340547 0.585984
vt 0.340547 0.872686
vt 0.367573 0.585984
vt 0.367573 0.872686
vt 0.392579 0.585984
vt 0.392579 0.872686
vt 0.414604 0.585984
vt 0.414604 0.872686
vt 0.585984 0.289770
vt 0.585984 0.003068
vt 0.607400 0.003068
vt 0.607400 0.289770
vt 0.631953 0.003068
vt 0.631953 0.289770
vt 0.658702 0.003068
vt 0.658702 0.289770
vt 0.686617 0.003068
vt 0.686617 0.289770
vt 0.714626 0.003068
vt 0.714626 0.289770
vt 0.741653 0.003068
vt 0.741653 0.289770
vt 0.766659 0.003068
vt 0.766659 0.289770
vt 0.788683 0.003068
vt 0.788683 0.289770
vt 0.585984 0.582608
vt 0.585984 0.295907
vt 0.607400 0.295907
vt 0.607400 0.582608
vt 0.631953 0.295907
vt 0.631953 0.582608
vt 0.288389 0.423136
vt 0.288389 0.451238
vt 0.282907 0.478799
vt 0.272153 0.504762
vt 0.256541 0.528128
vt 0.236670 0.547998
vt 0.213304 0.563611
vt 0.187341 0.574365
vt 0.159780 0.579847
vt 0.131678 0.579847
vt 0.104116 0.574365
vt 0.078154 0.563611
vt 0.054788 0.547998
vt 0.034917 0.528128
vt 0.019305 0.504762
vt 0.008551 0.478799
vt 0.003068 0.451238
vt 0.003068 0.423136
vt 0.008551 0.395574
vt 0.019305 0.369612
vt 0.034917 0.346246
vt 0.054788 0.326375
vt 0.078154 0.310763
vt 0.104116 0.300009
vt 0.131678 0.294526
vt 0.159780 0.294526
vt 0.187341 0.300009
vt 0.213304 0.310763
vt 0.236670 0.326375
vt 0.256541 0.346246
vt 0.272153 0.369612
vt 0.282907 0.395574
vt 0.658702 0.295907
vt 0.658702 0.582608
vt 0.579847 0.159780
vt 0.574365 0.187341
vt 0.563611 0.213304
vt 0.547998 0.236670
vt 0.528128 0.256541
vt 0.504762 0.272153
vt 0.478799 0.282907
vt 0.451238 0.288389
vt 0.423136 0.288389
vt 0.395574 0.282907
vt 0.369612 0.272153
vt 0.346246 0.256541
vt 0.326375 0.236670
vt 0.310763 0.213304
vt 0.300009 0.187341
vt 0.294526 0.159780
vt 0.294526 0.131678
vt 0.300009 0.104116
vt 0.310763 0.078154
vt 0.326375 0.054788
vt 0.346246 0.034917
vt 0.369612 0.019305
vt 0.395574 0.008551
vt 0.423136 0.003068
vt 0.451238 0.003068
vt 0.478799 0.008551
vt 0.504762 0.019305
vt 0.528128 0.034917
vt 0.547998 0.054788
vt 0.563611 0.078154
vt 0.574365 0.104116
vt 0.579847 0.131678
vt 0.864348 0.875447
vt 0.864348 0.588745
vt 0.892014 0.588745
vt 0.892014 0.875447
vt 0.920110 0.588745
vt 0.920110 0.875447
vt 0.947556 0.588745
vt 0.947556 0.875447
vt 0.973297 0.588745
vt 0.973297 0.875447
vt 0.996344 0.588745
vt 0.996344 0.875447
vt 0.794820 0.582608
vt 0.794820 0.295907
vt 0.815087 0.295907
vt 0.815087 0.582608
vt 0.838762 0.295907
vt 0.838762 0.582608
vt 0.864936 0.295907
vt 0.864936 0.582608
vt 0.892602 0.295907
vt 0.892602 0.582608
vt 0.920698 0.295907
vt 0.920698 0.582608
vt 0.948144 0.295907
vt 0.948144 0.582608
vt 0.973885 0.295907
vt 0.973885 0.582608
vt 0.996932 0.295907
vt 0.996932 0.582608
vt 0.794820 0.289770
vt 0.794820 0.003068
vt 0.815087 0.003068
vt 0.815087 0.289770
vt 0.838762 0.003068
vt 0.838762 0.289770
vt 0.864935 0.003068
vt 0.864935 0.289770
vt 0.892602 0.003068
vt 0.892602 0.289770
vt 0.920698 0.003068
vt 0.920698 0.289770
vt 0.948144 0.003068
vt 0.948144 0.289770
vt 0.973885 0.003068
vt 0.973885 0.289770
vt 0.996932 0.003068
vt 0.996932 0.289770
vt 0.585984 0.875447
vt 0.585984 0.588745
vt 0.606251 0.588745
vt 0.606251 0.875447
vt 0.629926 0.588745
vt 0.629926 0.875447
vt 0.656100 0.588745
vt 0.656100 0.875447
vt 0.683766 0.588745
vt 0.683766 0.875447
vt 0.711862 0.588745
vt 0.711862 0.875447
vt 0.739308 0.588745
vt 0.739308 0.875447
vt 0.765049 0.588745
vt 0.765049 0.875447
vt 0.788096 0.588745
vt 0.788096 0.875447
vt 0.794233 0.875447
vt 0.794233 0.588745
vt 0.814499 0.588745
vt 0.814499 0.875447
vt 0.019305 0.213304
vt 0.008551 0.187342
vt 0.003068 0.159780
vt 0.003068 0.131678
vt 0.008551 0.104116
vt 0.019305 0.078154
vt 0.034917 0.054788
vt 0.054788 0.034917
vt 0.078154 0.019305
vt 0.104116 0.008551
vt 0.131678 0.003068
vt 0.159780 0.003068
vt 0.187341 0.008551
vt 0.213304 0.019305
vt 0.236670 0.034917
vt 0.256541 0.054788
vt 0.272153 0.078154
vt 0.282907 0.104116
vt 0.288389 0.131678
vt 0.288389 0.159780
vt 0.282907 0.187341
vt 0.272153 0.213304
vt 0.256541 0.236670
vt 0.236670 0.256541
vt 0.213304 0.272153
vt 0.187342 0.282907
vt 0.159780 0.288389
vt 0.131678 0.288389
vt 0.104116 0.282907
vt 0.078154 0.272153
vt 0.054788 0.256541
vt 0.034917 0.236670
vt 0.838174 0.588745
vt 0.838174 0.875447
vt 0.574365 0.478799
vt 0.563611 0.504762
vt 0.547998 0.528128
vt 0.528128 0.547998
vt 0.504762 0.563611
vt 0.478799 0.574365
vt 0.451238 0.579847
vt 0.423136 0.579847
vt 0.395574 0.574365
vt 0.369612 0.563611
vt 0.346246 0.547998
vt 0.326375 0.528128
vt 0.310763 0.504762
vt 0.300009 0.478799
vt 0.294526 0.451238
vt 0.294526 0.423136
vt 0.300009 0.395574
vt 0.310763 0.369612
vt 0.326375 0.346246
vt 0.346246 0.326375
vt 0.369612 0.310763
vt 0.395574 0.300009
vt 0.423136 0.294526
vt 0.451238 0.294526
vt 0.478799 0.300009
vt 0.504762 0.310763
vt 0.528128 0.326375
vt 0.547998 0.346246
vt 0.563611 0.369612
vt 0.574365 0.395574
vt 0.579847 0.423136
vt 0.579847 0.451238
s 1
usemtl Bake
f 1/1/1 2/2/1 4/3/2 3/4/2
f 3/4/2 4/3/2 6/5/3 5/6/3
f 5/6/3 6/5/3 8/7/4 7/8/4
f 7/8/4 8/7/4 10/9/5 9/10/5
f 9/11/5 10/12/5 12/13/6 11/14/6
f 11/14/6 12/13/6 14/15/7 13/16/7
f 13/16/7 14/15/7 16/17/8 15/18/8
f 15/18/8 16/17/8 18/19/9 17/20/9
f 17/20/9 18/19/9 20/21/10 19/22/10
f 19/22/10 20/21/10 22/23/11 21/24/11
f 21/24/11 22/23/11 24/25/12 23/26/12
f 23/26/12 24/25/12 26/27/13 25/28/13
f 25/29/13 26/30/13 28/31/14 27/32/14
f 27/32/14 28/31/14 30/33/15 29/34/15
f 29/34/15 30/33/15 32/35/16 31/36/16
f 31/36/16 32/35/16 34/37/17 33/38/17
f 33/38/17 34/37/17 36/39/18 35/40/18
f 35/40/18 36/39/18 38/41/19 37/42/19
f 37/42/19 38/41/19 40/43/20 39/44/20
f 39/44/20 40/43/20 42/45/21 41/46/21
f 41/47/21 42/48/21 44/49/22 43/50/22
f 43/50/22 44/49/22 46/51/23 45/52/23
f 45/52/23 46/51/23 48/53/24 47/54/24
f 47/54/24 48/53/24 50/55/25 49/56/25
f 49/56/25 50/55/25 52/57/26 51/58/26
f 51/58/26 52/57/26 54/59/27 53/60/27
f 53/60/27 54/59/27 56/61/28 55/62/28
f 55/62/28 56/61/28 58/63/29 57/64/29
f 57/65/29 58/66/29 60/67/30 59/68/30
f 59/68/30 60/67/30 62/69/31 61/70/31
f 4/71/32 2/72/32 64/73/32 62/74/32 60/75/32 58/76/32 56/77/32 54/78/32 52/79/32 50/80/32 48/81/32 46/82/32 44/83/32 42/84/32 40/85/32 38/86/32 36/87/32 34/88/32 32/89/32 30/90/32 28/91/32 26/92/32 24/93/32 22/94/32 20/95/32 18/96/32 16/97/32 14/98/32 12/99/32 10/100/32 8/101/32 6/102/32
f 61/70/31 62/69/31 64/103/33 63/104/33
f 63/104/33 64/103/33 2/2/1 1/1/1
f 1/105/34 3/106/34 5/107/34 7/108/34 9/109/34 11/110/34 13/111/34 15/112/34 17/113/34 19/114/34 21/115/34 23/116/34 25/117/34 27/118/34 29/119/34 31/120/34 33/121/34 35/122/34 37/123/34 39/124/34 41/125/34 43/126/34 45/127/34 47/128/34 49/129/34 51/130/34 53/131/34 55/132/34 57/133/34 59/134/34 61/135/34 63/136/34
f 65/137/35 66/138/35 68/139/36 67/140/36
f 67/140/36 68/139/36 70/141/37 69/142/37
f 69/142/37 70/141/37 72/143/38 71/144/38
f 71/144/38 72/143/38 74/145/39 73/146/39
f 73/146/39 74/145/39 76/147/40 75/148/40
f 75/149/40 76/150/40 78/151/41 77/152/41
f 77/152/41 78/151/41 80/153/42 79/154/42
f 79/154/42 80/153/42 82/155/43 81/156/43
f 81/156/43 82/155/43 84/157/44 83/158/44
f 83/158/44 84/157/44 86/159/45 85/160/45
f 85/160/45 86/159/45 88/161/46 87/162/46
f 87/162/46 88/161/46 90/163/47 89/164/47
f 89/164/47 90/163/47 92/165/48 91/166/48
f 91/167/48 92/168/48 94/169/49 93/170/49
f 93/170/49 94/169/49 96/171/50 95/172/50
f 95/172/50 96/171/50 98/173/51 97/174/51
f 97/174/51 98/173/51 100/175/52 99/176/52
f 99/176/52 100/175/52 102/177/53 101/178/53
f 101/178/53 102/177/53 104/179/54 103/180/54
f 103/180/54 104/179/54 106/181/55 105/182/55
f 105/182/55 106/181/55 108/183/56 107/184/56
f 107/185/56 108/186/56 110/187/57 109/188/57
f 109/188/57 110/187/57 112/189/58 111/190/58
f 111/190/58 112/189/58 114/191/59 113/192/59
f 113/192/59 114/191/59 116/193/60 115/194/60
f 115/194/60 116/193/60 118/195/61 117/196/61
f 117/196/61 118/195/61 120/197/62 119/198/62
f 119/198/62 120/197/62 122/199/63 121/200/63
f 121/200/63 122/199/63 124/201/64 123/202/64
f 123/203/64 124/204/64 126/205/65 125/206/65
f 68/207/32 66/208/32 128/209/32 126/210/32 124/211/32 122/212/32 120/213/32 118/214/32 116/215/32 114/216/32 112/217/32 110/218/32 108/219/32 106/220/32 104/221/32 102/222/32 100/223/32 98/224/32 96/225/32 94/226/32 92/227/32 90/228/32 88/229/32 86/230/32 84/231/32 82/232/32 80/233/32 78/234/32 76/235/32 74/236/32 72/237/32 70/238/32
f 125/206/65 126/205/65 128/239/66 127/240/66
f 127/240/66 128/239/66 66/138/35 65/137/35
f 65/241/34 67/242/34 69/243/34 71/244/34 73/245/34 75/246/34 77/247/34 79/248/34 81/249/34 83/250/34 85/251/34 87/252/34 89/253/34 91/254/34 93/255/34 95/256/34 97/257/34 99/258/34 101/259/34 103/260/34 105/261/34 107/262/34 109/263/34 111/264/34 113/265/34 115/266/34 117/267/34 119/268/34 121/269/34 123/270/34 125/271/34 127/272/34
