# Blender 4.3.0
# www.blender.org
mtllib test_2.mtl
o Plane
v -30.000000 0.000000 30.000000
v 30.000000 0.000000 30.000000
v -30.000000 0.000000 -30.000000
v 30.000000 0.000000 -30.000000
vn -0.0000 1.0000 -0.0000
vt 0.000000 0.000000
vt 1.000000 0.000000
vt 1.000000 1.000000
vt 0.000000 1.000000
s 0
usemtl Material.001
f 1/1/1 2/2/1 4/3/1 3/4/1
o Cube
v -19.771347 0.687092 -17.750294
v -19.771347 2.687092 -17.750294
v -19.771347 0.687092 -19.750294
v -19.771347 2.687092 -19.750294
v -17.771347 0.687092 -17.750294
v -17.771347 2.687092 -17.750294
v -17.771347 0.687092 -19.750294
v -17.771347 2.687092 -19.750294
vn -1.0000 -0.0000 -0.0000
vn -0.0000 -0.0000 -1.0000
vn 1.0000 -0.0000 -0.0000
vn -0.0000 -0.0000 1.0000
vn -0.0000 -1.0000 -0.0000
vn -0.0000 1.0000 -0.0000
vt 0.195086 0.000000
vt 0.195086 1.000000
vt 0.804914 1.000000
vt 0.804914 0.000000
s 0
usemtl Material.002
f 5/5/2 6/6/2 8/7/2 7/8/2
f 7/5/3 8/6/3 12/7/3 11/8/3
f 11/8/4 12/7/4 10/6/4 9/5/4
f 9/8/5 10/7/5 6/6/5 5/5/5
f 7/6/6 11/7/6 9/8/6 5/5/6
f 12/7/7 8/6/7 6/5/7 10/8/7
